<svg width="375" height="117" viewBox="0 0 375 117" fill="none" xmlns="http://www.w3.org/2000/svg">
<g filter="url(#filter0_di_1034_3)">
<path d="M7.17773 0.333984C16.3574 0.724609 27.9053 0.919922 41.8213 0.919922L70.166 77.6777H70.5322L100.049 0.919922H108.472C114.526 0.919922 123.071 0.724609 134.106 0.333984C134.302 1.11523 134.399 1.65234 134.399 1.94531C134.399 2.28711 134.302 2.89746 134.106 3.77637C132.349 3.92285 130.933 4.06934 129.858 4.21582C128.784 4.3623 127.344 4.60645 125.537 4.94824C123.779 5.29004 122.363 5.70508 121.289 6.19336C120.215 6.63281 119.263 7.26758 118.433 8.09766C117.603 8.87891 117.163 9.78223 117.114 10.8076C116.626 22.2822 116.382 35.9297 116.382 51.75C116.382 67.8145 116.699 83.2197 117.334 97.9658C117.383 99.2354 117.944 100.334 119.019 101.262C120.093 102.141 121.631 102.824 123.633 103.312C125.684 103.801 127.393 104.167 128.76 104.411C130.176 104.606 132.007 104.802 134.253 104.997C134.448 105.778 134.546 106.438 134.546 106.975C134.546 107.365 134.448 107.854 134.253 108.439C126.001 108.146 117.505 108 108.765 108C99.9756 108 91.4795 108.146 83.2764 108.439C83.0811 107.854 82.9834 107.365 82.9834 106.975C82.9834 106.145 83.0811 105.485 83.2764 104.997C85.5225 104.802 87.3291 104.606 88.6963 104.411C90.1123 104.167 91.8213 103.801 93.8232 103.312C95.874 102.824 97.4365 102.141 98.5107 101.262C99.585 100.334 100.146 99.2354 100.195 97.9658C100.684 82.7314 100.928 69.1328 100.928 57.1699C100.928 45.6953 100.684 32.6338 100.195 17.9854H99.6094L66.1377 106.169H65.4053L29.7363 16.2275H28.9307C28.54 28.0928 28.3447 41.7402 28.3447 57.1699C28.3447 68.498 28.5889 81.7305 29.0771 96.8672C29.1748 101.311 34.5703 104.021 45.2637 104.997C45.5078 105.827 45.6299 106.486 45.6299 106.975C45.6299 107.463 45.5078 107.951 45.2637 108.439C37.5 108.146 30.5664 108 24.4629 108C20.5566 108 14.0137 108.146 4.83398 108.439C4.58984 107.951 4.46777 107.463 4.46777 106.975C4.46777 106.145 4.58984 105.485 4.83398 104.997C15.625 103.972 21.0205 101.262 21.0205 96.8672C21.6064 81.6328 21.8994 66.5938 21.8994 51.75C21.8994 41.0566 21.7529 29.7041 21.46 17.6924C21.4111 15.6416 21.2891 13.9326 21.0938 12.5654C20.8984 11.1494 20.5322 9.92871 19.9951 8.90332C19.458 7.87793 18.8965 7.07227 18.3105 6.48633C17.7246 5.90039 16.8213 5.3877 15.6006 4.94824C14.3799 4.45996 13.1836 4.11816 12.0117 3.92285C10.8887 3.67871 9.27734 3.41016 7.17773 3.11719C6.98242 2.72656 6.88477 2.28711 6.88477 1.79883C6.88477 1.21289 6.98242 0.724609 7.17773 0.333984ZM147.07 0.333984C156.25 0.724609 167.798 0.919922 181.714 0.919922L210.059 77.6777H210.425L239.941 0.919922H248.364C254.419 0.919922 262.964 0.724609 273.999 0.333984C274.194 1.11523 274.292 1.65234 274.292 1.94531C274.292 2.28711 274.194 2.89746 273.999 3.77637C272.241 3.92285 270.825 4.06934 269.751 4.21582C268.677 4.3623 267.236 4.60645 265.43 4.94824C263.672 5.29004 262.256 5.70508 261.182 6.19336C260.107 6.63281 259.155 7.26758 258.325 8.09766C257.495 8.87891 257.056 9.78223 257.007 10.8076C256.519 22.2822 256.274 35.9297 256.274 51.75C256.274 67.8145 256.592 83.2197 257.227 97.9658C257.275 99.2354 257.837 100.334 258.911 101.262C259.985 102.141 261.523 102.824 263.525 103.312C265.576 103.801 267.285 104.167 268.652 104.411C270.068 104.606 271.899 104.802 274.146 104.997C274.341 105.778 274.438 106.438 274.438 106.975C274.438 107.365 274.341 107.854 274.146 108.439C265.894 108.146 257.397 108 248.657 108C239.868 108 231.372 108.146 223.169 108.439C222.974 107.854 222.876 107.365 222.876 106.975C222.876 106.145 222.974 105.485 223.169 104.997C225.415 104.802 227.222 104.606 228.589 104.411C230.005 104.167 231.714 103.801 233.716 103.312C235.767 102.824 237.329 102.141 238.403 101.262C239.478 100.334 240.039 99.2354 240.088 97.9658C240.576 82.7314 240.82 69.1328 240.82 57.1699C240.82 45.6953 240.576 32.6338 240.088 17.9854H239.502L206.03 106.169H205.298L169.629 16.2275H168.823C168.433 28.0928 168.237 41.7402 168.237 57.1699C168.237 68.498 168.481 81.7305 168.97 96.8672C169.067 101.311 174.463 104.021 185.156 104.997C185.4 105.827 185.522 106.486 185.522 106.975C185.522 107.463 185.4 107.951 185.156 108.439C177.393 108.146 170.459 108 164.355 108C160.449 108 153.906 108.146 144.727 108.439C144.482 107.951 144.36 107.463 144.36 106.975C144.36 106.145 144.482 105.485 144.727 104.997C155.518 103.972 160.913 101.262 160.913 96.8672C161.499 81.6328 161.792 66.5938 161.792 51.75C161.792 41.0566 161.646 29.7041 161.353 17.6924C161.304 15.6416 161.182 13.9326 160.986 12.5654C160.791 11.1494 160.425 9.92871 159.888 8.90332C159.351 7.87793 158.789 7.07227 158.203 6.48633C157.617 5.90039 156.714 5.3877 155.493 4.94824C154.272 4.45996 153.076 4.11816 151.904 3.92285C150.781 3.67871 149.17 3.41016 147.07 3.11719C146.875 2.72656 146.777 2.28711 146.777 1.79883C146.777 1.21289 146.875 0.724609 147.07 0.333984ZM302.856 58.3418C302.856 54.8262 302.612 38.7373 302.124 10.0752C301.978 8.95215 301.392 8 300.366 7.21875C299.39 6.38867 297.949 5.75391 296.045 5.31445C294.141 4.875 292.578 4.55762 291.357 4.3623C290.186 4.16699 288.525 3.97168 286.377 3.77637C286.182 2.89746 286.084 2.28711 286.084 1.94531C286.084 1.65234 286.182 1.11523 286.377 0.333984C287.646 0.382813 290.674 0.504883 295.459 0.700195C300.244 0.84668 303.931 0.919922 306.519 0.919922C308.716 0.919922 312.866 0.822266 318.97 0.626953C325.073 0.431641 329.468 0.333984 332.153 0.333984C344.653 0.333984 354.199 3.23926 360.791 9.0498C367.383 14.8604 370.679 22.5996 370.679 32.2676C370.679 41.4473 367.725 48.9424 361.816 54.7529C355.908 60.5635 347.51 63.4688 336.621 63.4688C330.078 63.4688 324.194 62.1016 318.97 59.3672C318.97 71.2812 319.116 84.1475 319.409 97.9658C319.458 99.2354 320.02 100.334 321.094 101.262C322.168 102.141 323.706 102.824 325.708 103.312C327.759 103.801 329.468 104.167 330.835 104.411C332.251 104.606 334.082 104.802 336.328 104.997C336.523 105.974 336.621 106.633 336.621 106.975C336.621 107.365 336.523 107.854 336.328 108.439C328.027 108.146 319.531 108 310.84 108C302.051 108 293.555 108.146 285.352 108.439C285.156 107.854 285.059 107.365 285.059 106.975C285.059 106.145 285.156 105.485 285.352 104.997C287.598 104.802 289.404 104.606 290.771 104.411C292.188 104.167 293.896 103.801 295.898 103.312C297.949 102.824 299.512 102.141 300.586 101.262C301.66 100.334 302.222 99.2354 302.271 97.9658C302.661 85.417 302.856 72.209 302.856 58.3418ZM319.409 5.3877C319.116 22.9658 318.97 39.3232 318.97 54.46C322.974 56.2666 326.953 57.1699 330.908 57.1699C337.793 57.1699 342.969 54.9482 346.436 50.5049C349.902 46.0615 351.636 39.9336 351.636 32.1211C351.636 14.1035 342.725 5.09473 324.902 5.09473C323.779 5.09473 321.948 5.19238 319.409 5.3877Z" fill="#2E4BAB"/>
</g>
<defs>
<filter id="filter0_di_1034_3" x="0.467773" y="0.333984" width="374.211" height="116.105" filterUnits="userSpaceOnUse" color-interpolation-filters="sRGB">
<feFlood flood-opacity="0" result="BackgroundImageFix"/>
<feColorMatrix in="SourceAlpha" type="matrix" values="0 0 0 0 0 0 0 0 0 0 0 0 0 0 0 0 0 0 127 0" result="hardAlpha"/>
<feOffset dy="4"/>
<feGaussianBlur stdDeviation="2"/>
<feComposite in2="hardAlpha" operator="out"/>
<feColorMatrix type="matrix" values="0 0 0 0 0 0 0 0 0 0 0 0 0 0 0 0 0 0 0.25 0"/>
<feBlend mode="normal" in2="BackgroundImageFix" result="effect1_dropShadow_1034_3"/>
<feBlend mode="normal" in="SourceGraphic" in2="effect1_dropShadow_1034_3" result="shape"/>
<feColorMatrix in="SourceAlpha" type="matrix" values="0 0 0 0 0 0 0 0 0 0 0 0 0 0 0 0 0 0 127 0" result="hardAlpha"/>
<feOffset dy="4"/>
<feGaussianBlur stdDeviation="2"/>
<feComposite in2="hardAlpha" operator="arithmetic" k2="-1" k3="1"/>
<feColorMatrix type="matrix" values="0 0 0 0 0 0 0 0 0 0 0 0 0 0 0 0 0 0 0.25 0"/>
<feBlend mode="normal" in2="shape" result="effect2_innerShadow_1034_3"/>
</filter>
</defs>
</svg>
